<svg width="75" height="60" viewBox="0 0 75 60" fill="none" xmlns="http://www.w3.org/2000/svg">
<g clip-path="url(#clip0_581_524)">
<path d="M0 57.1875V20.0742C0 17.0039 1.86328 14.25 4.71094 13.1133L36.1055 0.5625C36.9961 0.199219 37.9922 0.199219 38.8945 0.5625L70.2891 13.1133C73.1367 14.25 75 17.0156 75 20.0742V57.1875C75 58.7461 73.7461 60 72.1875 60H66.5625C65.0039 60 63.75 58.7461 63.75 57.1875V26.25C63.75 24.1758 62.0742 22.5 60 22.5H15C12.9258 22.5 11.25 24.1758 11.25 26.25V57.1875C11.25 58.7461 9.99609 60 8.4375 60H2.8125C1.25391 60 0 58.7461 0 57.1875ZM57.1875 60H17.8125C16.2539 60 15 58.7461 15 57.1875V50.625H60V57.1875C60 58.7461 58.7461 60 57.1875 60ZM15 46.875V39.375H60V46.875H15ZM15 35.625V26.25H60V35.625H15Z" fill="white"/>
</g>
<defs>
<clipPath id="clip0_581_524">
<rect width="75" height="60" fill="white"/>
</clipPath>
</defs>
</svg>
