<svg width="60" height="60" viewBox="0 0 60 60" fill="none" xmlns="http://www.w3.org/2000/svg">
<path d="M40.731 7.1339C38.6513 6.33395 36.3487 6.33395 34.269 7.1339L23.886 11.1269C23.0368 11.4532 22.3064 12.0292 21.7912 12.779C21.276 13.5288 21.0001 14.4172 21 15.3269V18.6269C22.9645 18.3791 24.9598 18.6213 26.808 19.3319L37.188 23.3279C38.6036 23.8713 39.8212 24.8311 40.6802 26.0806C41.5393 27.3301 41.9994 28.8106 42 30.3269V44.6669C42.0001 45.2694 41.9276 45.8697 41.784 46.4549L51.117 42.8669C51.9662 42.5406 52.6966 41.9646 53.2118 41.2148C53.727 40.465 54.0029 39.5766 54.003 38.6669V15.3269C54.0029 14.4172 53.727 13.5288 53.2118 12.779C52.6966 12.0292 51.9662 11.4532 51.117 11.1269L40.731 7.1339ZM46.335 13.5959C46.519 13.5252 46.7151 13.4914 46.9121 13.4965C47.1092 13.5015 47.3033 13.5454 47.4834 13.6255C47.6635 13.7056 47.826 13.8203 47.9618 13.9632C48.0975 14.1062 48.2038 14.2744 48.2745 14.4584C48.3452 14.6424 48.379 14.8385 48.3739 15.0355C48.3689 15.2326 48.325 15.4267 48.2449 15.6068C48.1648 15.7869 48.0501 15.9494 47.9072 16.0852C47.7642 16.2209 47.596 16.3272 47.412 16.3979L39.114 19.5869C38.0741 19.9869 36.9229 19.9869 35.883 19.5869L27.585 16.3979C27.2134 16.2547 26.914 15.9697 26.7525 15.6057C26.591 15.2417 26.5808 14.8285 26.724 14.4569C26.8672 14.0853 27.1522 13.7859 27.5162 13.6244C27.8802 13.4629 28.2934 13.4527 28.665 13.5959L36.96 16.7879C37.3075 16.922 37.6925 16.922 38.04 16.7879L46.335 13.5959ZM19.269 22.1339C21.3487 21.3339 23.6513 21.3339 25.731 22.1339L36.114 26.1269C37.854 26.7959 38.997 28.4669 38.997 30.3269V44.6669C38.9971 45.5763 38.7217 46.4644 38.207 47.2141C37.6924 47.9639 36.9627 48.5401 36.114 48.8669L25.731 52.8599C23.6513 53.6598 21.3487 53.6598 19.269 52.8599L8.886 48.8699C8.03678 48.5436 7.30641 47.9676 6.79119 47.2178C6.27598 46.468 6.00012 45.5796 6 44.6699V30.3299C6.00012 29.4202 6.27598 28.5318 6.79119 27.782C7.30641 27.0322 8.03678 26.4562 8.886 26.1299L19.269 22.1339ZM33.273 30.8789C33.1301 30.5078 32.8457 30.2087 32.4822 30.0472C32.1188 29.8858 31.7062 29.8752 31.335 30.0179L22.5 33.4169L13.662 30.0179C13.4771 29.9414 13.2787 29.9026 13.0785 29.9039C12.8784 29.9052 12.6805 29.9466 12.4966 30.0255C12.3127 30.1045 12.1464 30.2195 12.0076 30.3637C11.8688 30.5079 11.7603 30.6784 11.6884 30.8652C11.6165 31.052 11.5828 31.2513 11.5891 31.4514C11.5954 31.6514 11.6418 31.8482 11.7253 32.03C11.8089 32.2119 11.928 32.3752 12.0756 32.5104C12.2233 32.6455 12.3965 32.7497 12.585 32.8169L21 36.0539V43.5239C21 43.9217 21.158 44.3033 21.4393 44.5846C21.7206 44.8659 22.1022 45.0239 22.5 45.0239C22.8978 45.0239 23.2794 44.8659 23.5607 44.5846C23.842 44.3033 24 43.9217 24 43.5239V36.0539L32.412 32.8169C32.7831 32.674 33.0822 32.3895 33.2437 32.0261C33.4051 31.6627 33.4157 31.2501 33.273 30.8789Z" fill="white"/>
</svg>
