<svg width="60" height="60" viewBox="0 0 60 60" fill="none" xmlns="http://www.w3.org/2000/svg">
<path d="M48.75 48.75C48.75 50.4076 48.0915 51.9973 46.9194 53.1694C45.7473 54.3415 44.1576 55 42.5 55C40.8424 55 39.2527 54.3415 38.0806 53.1694C36.9085 51.9973 36.25 50.4076 36.25 48.75C36.25 47.0924 36.9085 45.5027 38.0806 44.3306C39.2527 43.1585 40.8424 42.5 42.5 42.5C44.1576 42.5 45.7473 43.1585 46.9194 44.3306C48.0915 45.5027 48.75 47.0924 48.75 48.75ZM23.75 48.75C23.75 50.4076 23.0915 51.9973 21.9194 53.1694C20.7473 54.3415 19.1576 55 17.5 55C15.8424 55 14.2527 54.3415 13.0806 53.1694C11.9085 51.9973 11.25 50.4076 11.25 48.75C11.25 47.0924 11.9085 45.5027 13.0806 44.3306C14.2527 43.1585 15.8424 42.5 17.5 42.5C19.1576 42.5 20.7473 43.1585 21.9194 44.3306C23.0915 45.5027 23.75 47.0924 23.75 48.75Z" stroke="white" stroke-width="3.75"/>
<path d="M5 30V42.5C5 44.8375 5 46.005 5.5025 46.875C5.83162 47.445 6.30498 47.9184 6.875 48.2475C7.745 48.75 8.9125 48.75 11.25 48.75M36.25 48.75H23.75M37.5 43.75V22.5C37.5 18.965 37.5 17.1975 36.4 16.1C35.305 15 33.5375 15 30 15H27.5M38.75 21.25H43.2525C45.3275 21.25 46.365 21.25 47.225 21.7375C48.085 22.2225 48.6175 23.1125 49.685 24.8925L53.9325 31.9675C54.4625 32.8525 54.7275 33.2975 54.865 33.7875C55 34.28 55 34.795 55 35.8275V42.5C55 44.8375 55 46.005 54.4975 46.875C54.1684 47.445 53.695 47.9184 53.125 48.2475C52.255 48.75 51.0875 48.75 48.75 48.75M19.625 19.625L16.25 17.375V11.75M5 16.25C5 17.7274 5.29099 19.1903 5.85636 20.5552C6.42172 21.9201 7.25039 23.1603 8.29505 24.205C9.33971 25.2496 10.5799 26.0783 11.9448 26.6436C13.3097 27.209 14.7726 27.5 16.25 27.5C17.7274 27.5 19.1903 27.209 20.5552 26.6436C21.9201 26.0783 23.1603 25.2496 24.205 24.205C25.2496 23.1603 26.0783 21.9201 26.6436 20.5552C27.209 19.1903 27.5 17.7274 27.5 16.25C27.5 13.2663 26.3147 10.4048 24.205 8.29505C22.0952 6.18526 19.2337 5 16.25 5C13.2663 5 10.4048 6.18526 8.29505 8.29505C6.18526 10.4048 5 13.2663 5 16.25Z" stroke="white" stroke-width="3.75" stroke-linecap="round" stroke-linejoin="round"/>
</svg>
