<svg width="60" height="60" viewBox="0 0 60 60" fill="none" xmlns="http://www.w3.org/2000/svg">
<path d="M30 25C31.1491 25 32.2869 24.7737 33.3485 24.3339C34.4101 23.8942 35.3747 23.2497 36.1872 22.4372C36.9997 21.6247 37.6442 20.6601 38.0839 19.5985C38.5237 18.5369 38.75 17.3991 38.75 16.25C38.75 15.1009 38.5237 13.9631 38.0839 12.9015C37.6442 11.8399 36.9997 10.8753 36.1872 10.0628C35.3747 9.2503 34.4101 8.60578 33.3485 8.16605C32.2869 7.72633 31.1491 7.5 30 7.5C27.6794 7.5 25.4538 8.42187 23.8128 10.0628C22.1719 11.7038 21.25 13.9294 21.25 16.25C21.25 18.5706 22.1719 20.7962 23.8128 22.4372C25.4538 24.0781 27.6794 25 30 25Z" fill="white" stroke="white" stroke-width="5" stroke-linecap="round" stroke-linejoin="round"/>
<path d="M15 9.06885C13.8416 9.87416 12.8955 10.948 12.2424 12.1986C11.5894 13.4492 11.2489 14.8393 11.25 16.2501C11.2497 17.7598 11.64 19.2439 12.383 20.5581C13.1259 21.8723 14.1963 22.972 15.49 23.7501M45 9.06885C46.1584 9.87416 47.1046 10.948 47.7576 12.1986C48.4106 13.4492 48.7511 14.8393 48.75 16.2501C48.7513 17.6611 48.4109 19.0515 47.7579 20.3023C47.1048 21.5531 46.1586 22.6272 45 23.4326" stroke="white" stroke-width="5" stroke-linecap="round" stroke-linejoin="round"/>
<path d="M15 50V52.5H45V50C45 45.3413 45 43.0112 44.2387 41.1725C43.2235 38.7224 41.2766 36.7759 38.8263 35.7612C36.99 35 34.66 35 30 35C25.34 35 23.0112 35 21.1737 35.7612C19.9603 36.2638 18.8578 37.0005 17.9291 37.9291C17.0005 38.8578 16.2638 39.9603 15.7613 41.1737C15 43.0112 15 45.3413 15 50Z" fill="white" stroke="white" stroke-width="5" stroke-linecap="round" stroke-linejoin="round"/>
<path d="M55 52.5001V51.0001C55 45.4001 55 42.6001 53.91 40.4601C52.9513 38.5786 51.4215 37.0488 49.54 36.0901M5 52.5001V51.0001C5 45.4001 5 42.6001 6.09 40.4601C7.04872 38.5786 8.57846 37.0488 10.46 36.0901" stroke="white" stroke-width="5" stroke-linecap="round" stroke-linejoin="round"/>
</svg>
